<svg width="500" height="325" viewBox="0 0 500 325" fill="none" xmlns="http://www.w3.org/2000/svg">
<rect width="500" height="325" fill="#D9D9D9"/>
<path d="M146.687 179.477C144.687 179.477 142.886 179.08 141.283 178.284C139.681 177.489 138.397 176.398 137.431 175.011C136.465 173.625 135.937 172.045 135.846 170.273H139.937C140.096 171.852 140.812 173.159 142.085 174.193C143.369 175.216 144.903 175.727 146.687 175.727C148.119 175.727 149.391 175.392 150.505 174.722C151.63 174.051 152.511 173.131 153.147 171.96C153.795 170.778 154.119 169.443 154.119 167.955C154.119 166.432 153.783 165.074 153.113 163.881C152.454 162.676 151.545 161.727 150.386 161.034C149.227 160.341 147.903 159.989 146.414 159.977C145.346 159.966 144.249 160.131 143.124 160.472C141.999 160.801 141.073 161.227 140.346 161.75L136.391 161.273L138.505 144.091H156.641V147.841H142.05L140.823 158.136H141.028C141.744 157.568 142.641 157.097 143.721 156.722C144.8 156.347 145.925 156.159 147.096 156.159C149.232 156.159 151.136 156.67 152.806 157.693C154.488 158.705 155.806 160.091 156.761 161.852C157.727 163.614 158.21 165.625 158.21 167.886C158.21 170.114 157.71 172.102 156.71 173.852C155.721 175.591 154.357 176.966 152.619 177.977C150.88 178.977 148.903 179.477 146.687 179.477ZM176.367 179.477C173.799 179.477 171.612 178.778 169.805 177.381C167.998 175.972 166.617 173.932 165.663 171.261C164.708 168.58 164.231 165.341 164.231 161.545C164.231 157.773 164.708 154.551 165.663 151.881C166.629 149.199 168.015 147.153 169.822 145.744C171.64 144.324 173.822 143.614 176.367 143.614C178.913 143.614 181.089 144.324 182.896 145.744C184.714 147.153 186.1 149.199 187.055 151.881C188.021 154.551 188.504 157.773 188.504 161.545C188.504 165.341 188.026 168.58 187.072 171.261C186.117 173.932 184.737 175.972 182.93 177.381C181.123 178.778 178.935 179.477 176.367 179.477ZM176.367 175.727C178.913 175.727 180.89 174.5 182.299 172.045C183.708 169.591 184.413 166.091 184.413 161.545C184.413 158.523 184.089 155.949 183.441 153.824C182.805 151.699 181.884 150.08 180.68 148.966C179.487 147.852 178.049 147.295 176.367 147.295C173.844 147.295 171.873 148.54 170.452 151.028C169.032 153.506 168.322 157.011 168.322 161.545C168.322 164.568 168.64 167.136 169.276 169.25C169.913 171.364 170.827 172.972 172.021 174.074C173.225 175.176 174.674 175.727 176.367 175.727ZM206.367 179.477C203.799 179.477 201.612 178.778 199.805 177.381C197.998 175.972 196.617 173.932 195.663 171.261C194.708 168.58 194.231 165.341 194.231 161.545C194.231 157.773 194.708 154.551 195.663 151.881C196.629 149.199 198.015 147.153 199.822 145.744C201.64 144.324 203.822 143.614 206.367 143.614C208.913 143.614 211.089 144.324 212.896 145.744C214.714 147.153 216.1 149.199 217.055 151.881C218.021 154.551 218.504 157.773 218.504 161.545C218.504 165.341 218.026 168.58 217.072 171.261C216.117 173.932 214.737 175.972 212.93 177.381C211.123 178.778 208.935 179.477 206.367 179.477ZM206.367 175.727C208.913 175.727 210.89 174.5 212.299 172.045C213.708 169.591 214.413 166.091 214.413 161.545C214.413 158.523 214.089 155.949 213.441 153.824C212.805 151.699 211.884 150.08 210.68 148.966C209.487 147.852 208.049 147.295 206.367 147.295C203.844 147.295 201.873 148.54 200.452 151.028C199.032 153.506 198.322 157.011 198.322 161.545C198.322 164.568 198.64 167.136 199.276 169.25C199.913 171.364 200.827 172.972 202.021 174.074C203.225 175.176 204.674 175.727 206.367 175.727ZM259.004 172.727L239.776 153.5L242.367 150.909L261.594 170.136L259.004 172.727ZM242.367 172.727L239.776 170.136L259.004 150.909L261.594 153.5L242.367 172.727ZM295.417 179.477C293.167 179.477 291.161 179.091 289.4 178.318C287.65 177.545 286.258 176.472 285.224 175.097C284.201 173.71 283.644 172.102 283.553 170.273H287.849C287.94 171.398 288.326 172.369 289.008 173.188C289.69 173.994 290.582 174.619 291.684 175.062C292.786 175.506 294.008 175.727 295.349 175.727C296.849 175.727 298.178 175.466 299.337 174.943C300.496 174.42 301.406 173.693 302.065 172.761C302.724 171.83 303.053 170.75 303.053 169.523C303.053 168.239 302.735 167.108 302.099 166.131C301.462 165.142 300.531 164.369 299.303 163.812C298.076 163.256 296.576 162.977 294.803 162.977H292.008V159.227H294.803C296.19 159.227 297.406 158.977 298.451 158.477C299.508 157.977 300.332 157.273 300.923 156.364C301.525 155.455 301.826 154.386 301.826 153.159C301.826 151.977 301.565 150.949 301.042 150.074C300.519 149.199 299.781 148.517 298.826 148.028C297.883 147.54 296.769 147.295 295.485 147.295C294.281 147.295 293.144 147.517 292.076 147.96C291.019 148.392 290.156 149.023 289.485 149.852C288.815 150.67 288.451 151.659 288.394 152.818H284.303C284.371 150.989 284.923 149.386 285.957 148.011C286.991 146.625 288.343 145.545 290.013 144.773C291.695 144 293.542 143.614 295.553 143.614C297.712 143.614 299.565 144.051 301.11 144.926C302.656 145.79 303.843 146.932 304.673 148.352C305.502 149.773 305.917 151.307 305.917 152.955C305.917 154.92 305.4 156.597 304.366 157.983C303.343 159.369 301.951 160.33 300.19 160.864V161.136C302.394 161.5 304.116 162.437 305.354 163.949C306.593 165.449 307.212 167.307 307.212 169.523C307.212 171.42 306.695 173.125 305.661 174.636C304.638 176.136 303.241 177.318 301.468 178.182C299.695 179.045 297.678 179.477 295.417 179.477ZM314.184 179V175.932L325.707 163.318C327.059 161.841 328.173 160.557 329.048 159.466C329.923 158.364 330.57 157.33 330.991 156.364C331.423 155.386 331.638 154.364 331.638 153.295C331.638 152.068 331.343 151.006 330.752 150.108C330.173 149.21 329.377 148.517 328.366 148.028C327.354 147.54 326.218 147.295 324.957 147.295C323.616 147.295 322.445 147.574 321.445 148.131C320.457 148.676 319.69 149.443 319.144 150.432C318.61 151.42 318.343 152.58 318.343 153.909H314.32C314.32 151.864 314.792 150.068 315.735 148.523C316.678 146.977 317.962 145.773 319.587 144.909C321.224 144.045 323.059 143.614 325.093 143.614C327.138 143.614 328.951 144.045 330.531 144.909C332.11 145.773 333.349 146.937 334.246 148.403C335.144 149.869 335.593 151.5 335.593 153.295C335.593 154.58 335.36 155.835 334.894 157.062C334.44 158.278 333.644 159.636 332.508 161.136C331.383 162.625 329.82 164.443 327.82 166.591L319.979 174.977V175.25H336.207V179H314.184ZM354.156 179.477C352.156 179.477 350.354 179.08 348.752 178.284C347.15 177.489 345.866 176.398 344.9 175.011C343.934 173.625 343.406 172.045 343.315 170.273H347.406C347.565 171.852 348.281 173.159 349.553 174.193C350.837 175.216 352.371 175.727 354.156 175.727C355.587 175.727 356.86 175.392 357.974 174.722C359.099 174.051 359.979 173.131 360.616 171.96C361.263 170.778 361.587 169.443 361.587 167.955C361.587 166.432 361.252 165.074 360.582 163.881C359.923 162.676 359.013 161.727 357.854 161.034C356.695 160.341 355.371 159.989 353.883 159.977C352.815 159.966 351.718 160.131 350.593 160.472C349.468 160.801 348.542 161.227 347.815 161.75L343.86 161.273L345.974 144.091H364.11V147.841H349.519L348.292 158.136H348.496C349.212 157.568 350.11 157.097 351.19 156.722C352.269 156.347 353.394 156.159 354.565 156.159C356.701 156.159 358.604 156.67 360.275 157.693C361.957 158.705 363.275 160.091 364.229 161.852C365.195 163.614 365.678 165.625 365.678 167.886C365.678 170.114 365.178 172.102 364.178 173.852C363.19 175.591 361.826 176.966 360.087 177.977C358.349 178.977 356.371 179.477 354.156 179.477Z" fill="#5B5B5B"/>
</svg>
